<svg width="35" height="35" viewBox="0 0 35 35" fill="none" xmlns="http://www.w3.org/2000/svg">
<path d="M28.0438 5.84852L28.0439 5.84855C29.8781 6.45347 30.9474 7.74733 31.4204 9.38609C31.8994 11.0456 31.766 13.0704 31.1324 15.0634C30.8531 15.9382 29.9396 17.2608 28.6223 18.7986C27.3232 20.3152 25.6862 21.9796 24.0367 23.5267C22.3875 25.0736 20.734 26.4953 19.4049 27.5274C18.7394 28.0442 18.1627 28.4574 17.7128 28.7389C17.4872 28.88 17.3026 28.9823 17.1604 29.0476C17.0482 29.0991 16.9904 29.1142 16.9735 29.1187C16.9569 29.1143 16.9003 29.0992 16.791 29.0484C16.6512 28.9834 16.4697 28.8814 16.2478 28.7403C15.8053 28.4589 15.239 28.0456 14.5856 27.5285C13.281 26.4957 11.66 25.073 10.043 23.5254C8.42587 21.9776 6.82104 20.3128 5.54581 18.7966C4.25362 17.2603 3.35373 15.9382 3.07335 15.0636C2.44183 13.0749 2.30941 11.0523 2.78939 9.39273C3.26336 7.7539 4.33381 6.45755 6.1706 5.84841C9.87492 4.62603 14.5309 6.73533 16.6721 10.5114L17.1076 11.2795L17.5422 10.5109C19.6769 6.73558 24.3391 4.6258 28.0438 5.84852Z" stroke="#E3E3E3"/>
</svg>
