<svg width="60" height="60" viewBox="0 0 60 60" fill="none" xmlns="http://www.w3.org/2000/svg">
<g clip-path="url(#clip0_11_29)">
<path fill-rule="evenodd" clip-rule="evenodd" d="M0 0H60V60H0V0Z" fill="#3D3C3C"/>
<path fill-rule="evenodd" clip-rule="evenodd" d="M7.5 7.5H52.5V52.5H7.5V7.5Z" fill="#3D3C3C"/>
<path fill-rule="evenodd" clip-rule="evenodd" d="M30 9C18.408 9 9 18.408 9 30C9 41.592 18.408 51 30 51C41.592 51 51 41.592 51 30C51 18.408 41.592 9 30 9ZM30 39.45C24.771 39.45 20.55 35.229 20.55 30C20.55 24.771 24.771 20.55 30 20.55C35.229 20.55 39.45 24.771 39.45 30C39.45 35.229 35.229 39.45 30 39.45ZM37 30C37 26.3676 33.6324 23 30 23C26.3676 23 23 26.3676 23 30C23 33.9375 26.134 37 30 37C33.866 37 37 33.9375 37 30ZM27.9 30.0875C27.9 28.9325 28.845 27.9875 30 27.9875C31.155 27.9875 32.1 28.9325 32.1 30.0875C32.1 31.2425 31.155 32.1875 30 32.1875C28.845 32.1875 27.9 31.2425 27.9 30.0875Z" fill="#E3E3E3" fill-opacity="0.4"/>
<path fill-rule="evenodd" clip-rule="evenodd" d="M30 9C18.408 9 9 18.408 9 30C9 41.592 18.408 51 30 51C41.592 51 51 41.592 51 30C51 18.408 41.592 9 30 9ZM30 39.45C24.771 39.45 20.55 35.229 20.55 30C20.55 24.771 24.771 20.55 30 20.55C35.229 20.55 39.45 24.771 39.45 30C39.45 35.229 35.229 39.45 30 39.45ZM37 30C37 26.3676 33.6324 23 30 23C26.3676 23 23 26.3676 23 30C23 33.9375 26.134 37 30 37C33.866 37 37 33.9375 37 30ZM27.9 30.0875C27.9 28.9325 28.845 27.9875 30 27.9875C31.155 27.9875 32.1 28.9325 32.1 30.0875C32.1 31.2425 31.155 32.1875 30 32.1875C28.845 32.1875 27.9 31.2425 27.9 30.0875Z" fill="black" fill-opacity="0.2"/>
</g>
<defs>
<clipPath id="clip0_11_29">
<rect width="60" height="60" fill="white"/>
</clipPath>
</defs>
</svg>
