<svg width="36" height="21" viewBox="0 0 36 21" fill="none" xmlns="http://www.w3.org/2000/svg">
<g clip-path="url(#clip0_11_11)">
<path d="M15.8764 18.7051L14.5566 14.9383C14.5566 14.9383 12.412 17.4497 9.19601 17.4497C6.35032 17.4497 4.32991 14.8517 4.32991 10.6949C4.32991 5.36918 6.88635 3.46406 9.40218 3.46406C13.0308 3.46406 14.1853 5.93201 15.1752 9.09301L16.495 13.423C17.8143 17.6227 20.2886 21 27.4225 21C32.5363 21 36 19.3548 36 15.025C36 11.5178 34.1028 9.69913 30.5563 8.83308L27.9173 8.22696C26.103 7.79401 25.567 7.01454 25.567 5.71554C25.567 4.24336 26.6801 3.37731 28.4948 3.37731C30.4742 3.37731 31.5462 4.15677 31.7113 6.0186L35.8349 5.4989C35.505 1.60206 32.9485 0 28.7422 0C25.0311 0 21.4022 1.47218 21.4022 6.19178C21.4022 9.13614 22.763 10.9981 26.1853 11.864L28.9898 12.5566C31.0928 13.0763 31.7936 13.9855 31.7936 15.2413C31.7936 16.8431 30.3092 17.4926 27.5051 17.4926C23.3401 17.4926 21.6085 15.1979 20.6186 12.0369L19.2578 7.70725C17.5261 2.0783 14.7629 0 9.27832 0C3.21663 0 0 4.02672 0 10.8679C0 17.4495 3.21663 20.9998 8.99001 20.9998C13.6492 20.9998 15.8764 18.7051 15.8764 18.7051Z" fill="#E3E3E3"/>
</g>
<defs>
<clipPath id="clip0_11_11">
<rect width="36" height="21" fill="white"/>
</clipPath>
</defs>
</svg>
