<svg width="112" height="30" viewBox="0 0 112 30" fill="none" xmlns="http://www.w3.org/2000/svg">
<g clip-path="url(#clip0_1_6)">
<path d="M25.0354 27.6857L23.7153 23.887C23.7153 23.887 21.5701 26.4197 18.3533 26.4197C15.5069 26.4197 13.4859 23.7996 13.4859 19.6076C13.4859 14.2367 16.043 12.3154 18.5595 12.3154C22.1891 12.3154 23.3439 14.8043 24.3341 17.9921L25.6542 22.3588C26.9738 26.5942 29.4487 30.0002 36.5845 30.0002C41.6996 30.0002 45.1642 28.341 45.1642 23.9745C45.1642 20.4375 43.2666 18.6034 39.7192 17.73L37.0794 17.1187C35.2647 16.6821 34.7285 15.896 34.7285 14.586C34.7285 13.1013 35.8419 12.2279 37.6571 12.2279C39.637 12.2279 40.7093 13.014 40.8744 14.8916L44.9991 14.3675C44.6692 10.4376 42.1119 8.8219 37.9046 8.8219C34.1925 8.8219 30.5626 10.3066 30.5626 15.0662C30.5626 18.0356 31.9238 19.9134 35.347 20.7866L38.1522 21.4851C40.2558 22.0092 40.9568 22.9261 40.9568 24.1926C40.9568 25.8079 39.472 26.463 36.6671 26.463C32.5011 26.463 30.769 24.1488 29.7788 20.9609L28.4177 16.5946C26.6856 10.9178 23.9216 8.8219 18.4356 8.8219C12.3724 8.8219 9.15491 12.8828 9.15491 19.7821C9.15491 26.4195 12.3724 30 18.1472 30C22.8076 30 25.0354 27.6857 25.0354 27.6857Z" fill="#D92323"/>
<path d="M7.38368 25.6333C6.97125 25.7645 6.55866 25.8518 6.02249 25.8518C5.03249 25.8518 4.33119 25.3717 4.33119 24.105V0.305664H0V25.1967C0 28.4717 2.14513 29.8259 4.66114 29.8259C5.48617 29.8259 6.26995 29.6946 7.25995 29.4329L7.38368 25.6333Z" fill="#D92323"/>
<path d="M59.5598 24.9347C58.4873 25.7211 57.58 26.1142 56.3425 26.1142C54.7749 26.1142 53.9088 25.2408 53.9088 23.101V12.8821H59.6012V9.30164H53.9499V4.45398L49.5776 5.02175V9.30147H46.8138V12.8819H49.5776V24.0611C49.5776 28.0793 51.7637 29.9998 55.3113 29.9998C57.25 29.9998 58.9824 29.6073 60.3438 28.7777L59.5598 24.9347Z" fill="#D92323"/>
<path d="M63.3218 26.5066C63.3218 28.2974 64.6419 29.7382 66.333 29.7382C68.107 29.7382 69.4268 28.2974 69.4268 26.5066C69.4268 24.6726 68.1068 23.2758 66.333 23.2758C64.6419 23.2758 63.3218 24.6726 63.3218 26.5066Z" fill="#D92323"/>
<path d="M73.9106 12.8821V29.4762H78.2418V12.8821H83.1093V9.30169H78.2418V7.46738C78.2418 4.7165 79.3557 3.8431 81.1706 3.8431C82.4493 3.8431 83.3155 4.1484 84.3055 4.7165L85.0067 0.873241C83.8518 0.305634 82.4905 0 80.8406 0C77.2104 0 73.9106 1.83397 73.9106 7.29256V9.30169H71.147V12.8821H73.9106Z" fill="#D92323"/>
<path d="M100.368 13.2756C99.8725 10.0005 97.8514 8.82092 95.2114 8.82092C92.5715 8.82092 90.3029 10.0875 89.3126 13.1878L88.7764 9.30171H85.2703V29.4762H89.6015V18.0791C89.6015 14.1922 91.499 12.7075 93.5202 12.7075C95.6238 12.7075 96.4902 14.1922 96.4902 16.5939V29.4761H100.78V18.0353C100.78 14.192 102.719 12.7073 104.74 12.7073C106.803 12.7073 107.669 14.192 107.669 16.5938V29.4759H112V14.9788C112 10.6556 109.607 8.82092 106.431 8.82092C103.75 8.82092 101.358 10.0875 100.368 13.2756Z" fill="#D92323"/>
</g>
<defs>
<clipPath id="clip0_1_6">
<rect width="112" height="30" fill="white"/>
</clipPath>
</defs>
</svg>
