<svg width="35" height="35" viewBox="0 0 35 35" fill="none" xmlns="http://www.w3.org/2000/svg">
<g clip-path="url(#clip0_11_59)">
<path d="M29.8773 5.12266C26.5665 1.81913 22.1715 0 17.5 0C12.8285 0 8.43347 1.81913 5.12266 5.12266C1.81913 8.43347 0 12.8285 0 17.5C0 22.1715 1.81913 26.5665 5.12266 29.8773C8.4262 33.1809 12.8212 35 17.5 35C22.1788 35 26.5665 33.1809 29.8773 29.8773C33.1809 26.5738 35 22.1788 35 17.5C35 12.8212 33.1809 8.43347 29.8773 5.12266ZM17.5 33.0353C8.93555 33.0353 1.96466 26.0644 1.96466 17.5C1.96466 8.93555 8.93555 1.96466 17.5 1.96466C26.0644 1.96466 33.0353 8.93555 33.0353 17.5C33.0353 26.0644 26.0644 33.0353 17.5 33.0353Z" fill="#E3E3E3" fill-opacity="0.4"/>
<path d="M25.4096 16.6705L14.3056 9.5468C14 9.35034 13.6216 9.33578 13.3015 9.51042C12.9886 9.68506 12.7921 10.0125 12.7921 10.369V24.6092C12.7921 24.9657 12.9886 25.3004 13.3015 25.4678C13.447 25.5478 13.6144 25.5915 13.7744 25.5915C13.9564 25.5915 14.1455 25.5406 14.3056 25.4387L25.4096 18.315C25.6934 18.1331 25.8607 17.8202 25.8607 17.4855C25.8607 17.1508 25.6861 16.8524 25.4096 16.6705ZM14.7568 22.8264V12.1736L23.0593 17.5L14.7568 22.8264Z" fill="#E3E3E3" fill-opacity="0.4"/>
</g>
<defs>
<clipPath id="clip0_11_59">
<rect width="35" height="35" fill="white"/>
</clipPath>
</defs>
</svg>
