<svg width="35" height="35" viewBox="0 0 35 35" fill="none" xmlns="http://www.w3.org/2000/svg">
<path d="M18.889 9.23996C18.748 9.17096 18.585 9.19096 18.464 9.28396L7.68703 17.785C7.59403 17.863 7.53503 17.977 7.53503 18.098C7.53503 18.219 7.59403 18.338 7.68703 18.414L18.463 26.914C18.536 26.971 18.626 27 18.712 27L18.888 26.96C19.026 26.896 19.113 26.755 19.113 26.6V9.59996C19.113 9.44896 19.026 9.30496 18.889 9.23996Z" fill="#E3E3E3" fill-opacity="0.4"/>
<path fill-rule="evenodd" clip-rule="evenodd" d="M27.351 9.28396C27.472 9.19096 27.635 9.17096 27.777 9.23996C27.914 9.30496 28 9.44896 28 9.59996V26.6C28 26.755 27.914 26.896 27.777 26.96L27.599 27C27.513 27 27.423 26.971 27.351 26.914L19.1134 20.4168V15.7818L27.351 9.28396Z" fill="#E3E3E3" fill-opacity="0.4"/>
</svg>
