<svg width="35" height="35" viewBox="0 0 35 35" fill="none" xmlns="http://www.w3.org/2000/svg">
<path d="M16.111 25.76C16.252 25.829 16.415 25.809 16.536 25.716L27.313 17.215C27.406 17.137 27.465 17.023 27.465 16.902C27.465 16.781 27.406 16.662 27.313 16.586L16.537 8.08604C16.464 8.02904 16.374 8.00004 16.288 8.00004L16.112 8.04004C15.974 8.10404 15.887 8.24504 15.887 8.40004L15.887 25.4C15.887 25.551 15.974 25.695 16.111 25.76Z" fill="#E3E3E3" fill-opacity="0.4"/>
<path fill-rule="evenodd" clip-rule="evenodd" d="M7.649 25.716C7.528 25.809 7.365 25.829 7.223 25.76C7.086 25.695 7 25.551 7 25.4L7 8.40004C7 8.24504 7.086 8.10404 7.223 8.04004L7.401 8.00004C7.487 8.00004 7.577 8.02904 7.649 8.08604L15.8866 14.5832L15.8866 19.2182L7.649 25.716Z" fill="#E3E3E3" fill-opacity="0.4"/>
</svg>
